<svg width="295.53125px" height="71.6px" xmlns="http://www.w3.org/2000/svg" viewBox="102.234375 39.2 295.53125 71.6" style="background: rgba(0, 0, 0, 0);" preserveAspectRatio="xMidYMid"><defs><filter id="editing-hole" x="-100%" y="-100%" width="300%" height="300%"><feFlood flood-color="#000" result="black"></feFlood><feMorphology operator="dilate" radius="2" in="SourceGraphic" result="erode"></feMorphology><feGaussianBlur in="erode" stdDeviation="4" result="blur"></feGaussianBlur><feOffset in="blur" dx="2" dy="2" result="offset"></feOffset><feComposite operator="atop" in="offset" in2="black" result="merge"></feComposite><feComposite operator="in" in="merge" in2="SourceGraphic" result="inner-shadow"></feComposite></filter></defs><g filter="url(#editing-hole)"><g transform="translate(149.1499902009964, 85.01000118255615)"><path d="M1.09-17.55L1.09-19.66L15.82-19.66L15.82-17.55L9.78-17.55L9.78 0L7.21 0L7.21-17.55L1.09-17.55ZM19.30 0L19.30-19.69L21.66-19.69L21.66-11.12L21.66-11.12Q22.57-12.67 23.73-13.55L23.73-13.55L23.73-13.55Q25.06-14.53 26.37-14.53L26.37-14.53L26.37-14.53Q28.34-14.53 29.44-13.55L29.44-13.55L29.44-13.55Q30.38-12.70 30.73-10.99L30.73-10.99L30.73-10.99Q31.01-9.69 31.01-7.49L31.01-7.49L31.01 0L28.66 0L28.66-8.15L28.66-8.15Q28.66-8.98 28.62-9.52L28.62-9.52L28.62-9.52Q28.57-10.06 28.42-10.66L28.42-10.66L28.42-10.66Q28.26-11.25 27.97-11.59L27.97-11.59L27.97-11.59Q27.67-11.92 27.15-12.14L27.15-12.14L27.15-12.14Q26.62-12.36 25.87-12.36L25.87-12.36L25.87-12.36Q24.57-12.36 23.37-11.13L23.37-11.13L23.37-11.13Q22.60-10.35 21.66-8.75L21.66-8.75L21.66 0L19.30 0ZM45.01-2.64L45.69-0.79L45.69-0.79Q44.17-0.19 42.84 0.07L42.84 0.07L42.84 0.07Q41.51 0.33 40.46 0.33L40.46 0.33L40.46 0.33Q38.84 0.33 37.64-0.18L37.64-0.18L37.64-0.18Q36.44-0.70 35.64-1.63L35.64-1.63L35.64-1.63Q34.84-2.56 34.43-3.85L34.43-3.85L34.43-3.85Q34.03-5.14 34.03-6.70L34.03-6.70L34.03-6.70Q34.03-7.66 34.17-8.61L34.17-8.61L34.17-8.61Q34.30-9.57 34.60-10.44L34.60-10.44L34.60-10.44Q34.90-11.31 35.39-12.06L35.39-12.06L35.39-12.06Q35.88-12.81 36.57-13.36L36.57-13.36L36.57-13.36Q37.27-13.90 38.20-14.22L38.20-14.22L38.20-14.22Q39.13-14.53 40.32-14.53L40.32-14.53L40.32-14.53Q43.37-14.53 44.91-12.63L44.91-12.63L44.91-12.63Q46.46-10.72 46.46-7.16L46.46-7.16L46.46-6.41L36.45-6.41L36.45-6.41Q36.45-5.26 36.70-4.38L36.70-4.38L36.70-4.38Q36.94-3.50 37.45-2.89L37.45-2.89L37.45-2.89Q37.97-2.28 38.75-1.97L38.75-1.97L38.75-1.97Q39.54-1.65 40.62-1.65L40.62-1.65L40.62-1.65Q41.22-1.65 41.82-1.74L41.82-1.74L41.82-1.74Q42.41-1.83 42.97-1.98L42.97-1.98L42.97-1.98Q43.53-2.12 44.04-2.30L44.04-2.30L44.04-2.30Q44.56-2.47 45.01-2.64L45.01-2.64ZM36.52-8.30L44.09-8.30L44.09-8.30Q43.98-10.51 43.03-11.53L43.03-11.53L43.03-11.53Q42.08-12.55 40.32-12.55L40.32-12.55L40.32-12.55Q38.55-12.55 37.63-11.53L37.63-11.53L37.63-11.53Q36.71-10.51 36.52-8.30L36.52-8.30ZM77.55-19.65L80.05-19.65L77.68 0L73.87 0L68.40-17.02L62.93 0L59.12 0L56.75-19.65L59.25-19.65L61.30-3.10L61.44-3.10L66.87-19.65L69.93-19.65L75.36-3.10L75.50-3.10L77.55-19.65ZM84.18-11.70L84.18-11.70L83.58-13.62L83.58-13.62Q85.87-14.53 88.39-14.53L88.39-14.53L88.39-14.53Q90.59-14.53 91.75-13.79L91.75-13.79L91.75-13.79Q93.08-12.95 93.08-10.91L93.08-10.91L93.08-5.32L93.08-5.32Q93.08-4.20 93.11-3.02L93.11-3.02L93.11-3.02Q93.12-2.32 93.24-1.57L93.24-1.57L93.24-1.57Q93.35-0.86 93.53-0.22L93.53-0.22L91.29 0.27L91.29 0.27Q90.97-0.64 90.89-1.78L90.89-1.78L90.62-1.80L90.62-1.80Q88.92 0.33 86.30 0.33L86.30 0.33L86.30 0.33Q84.38 0.33 83.22-0.73L83.22-0.73L83.22-0.73Q82.06-1.79 82.06-3.72L82.06-3.72L82.06-3.72Q82.06-5.15 82.69-6.07L82.69-6.07L82.69-6.07Q83.33-6.99 84.49-7.62L84.49-7.62L84.49-7.62Q86.32-8.61 89.62-8.61L89.62-8.61L89.62-8.61Q90.06-8.61 90.79-8.59L90.79-8.59L90.79-10.66L90.79-10.66Q90.79-11.65 90.19-12.09L90.19-12.09L90.19-12.09Q89.59-12.52 88.31-12.52L88.31-12.52L88.31-12.52Q86.43-12.52 84.18-11.70ZM90.79-3.99L90.79-3.99L90.79-6.86L90.79-6.86Q90.43-6.89 89.71-6.89L89.71-6.89L89.71-6.89Q88.51-6.89 87.50-6.69L87.50-6.69L87.50-6.69Q86.00-6.38 85.17-5.74L85.17-5.74L85.17-5.74Q84.34-5.09 84.34-3.87L84.34-3.87L84.34-3.87Q84.34-1.68 86.72-1.68L86.72-1.68L86.72-1.68Q87.95-1.68 89.02-2.34L89.02-2.34L89.02-2.34Q89.89-2.88 90.79-3.99ZM101.80-14.53L101.80-14.53L101.80-14.53Q102.92-14.53 104.05-14.30L104.05-14.30L104.05-14.30Q105.18-14.07 106.15-13.66L106.15-13.66L106.15-13.66Q105.96-13.22 105.75-12.80L105.75-12.80L105.75-12.80Q105.55-12.37 105.30-11.96L105.30-11.96L105.30-11.96Q104.96-12.10 104.54-12.24L104.54-12.24L104.54-12.24Q104.13-12.37 103.67-12.47L103.67-12.47L103.67-12.47Q103.21-12.56 102.72-12.63L102.72-12.63L102.72-12.63Q102.24-12.69 101.77-12.69L101.77-12.69L101.77-12.69Q101.27-12.69 100.80-12.58L100.80-12.58L100.80-12.58Q100.32-12.48 99.96-12.25L99.96-12.25L99.96-12.25Q99.60-12.02 99.38-11.64L99.38-11.64L99.38-11.64Q99.16-11.27 99.16-10.71L99.16-10.71L99.16-10.71Q99.16-10.13 99.41-9.74L99.41-9.74L99.41-9.74Q99.65-9.35 100.08-9.09L100.08-9.09L100.08-9.09Q100.50-8.83 101.07-8.65L101.07-8.65L101.07-8.65Q101.64-8.48 102.28-8.33L102.28-8.33L102.28-8.33Q103.28-8.08 104.14-7.77L104.14-7.77L104.14-7.77Q105-7.46 105.63-6.97L105.63-6.97L105.63-6.97Q106.26-6.48 106.61-5.76L106.61-5.76L106.61-5.76Q106.97-5.03 106.97-3.96L106.97-3.96L106.97-3.96Q106.97-2.84 106.52-2.04L106.52-2.04L106.52-2.04Q106.08-1.23 105.32-0.70L105.32-0.70L105.32-0.70Q104.56-0.18 103.55 0.08L103.55 0.08L103.55 0.08Q102.54 0.33 101.39 0.33L101.39 0.33L101.39 0.33Q100.79 0.33 100.15 0.25L100.15 0.25L100.15 0.25Q99.52 0.18 98.90 0.03L98.90 0.03L98.90 0.03Q98.27-0.11 97.67-0.31L97.67-0.31L97.67-0.31Q97.07-0.52 96.54-0.77L96.54-0.77L96.54-0.77Q96.73-1.20 96.94-1.62L96.94-1.62L96.94-1.62Q97.15-2.04 97.38-2.45L97.38-2.45L97.38-2.45Q97.84-2.26 98.34-2.08L98.34-2.08L98.34-2.08Q98.85-1.91 99.38-1.79L99.38-1.79L99.38-1.79Q99.91-1.67 100.43-1.59L100.43-1.59L100.43-1.59Q100.95-1.52 101.43-1.52L101.43-1.52L101.43-1.52Q102.03-1.52 102.60-1.65L102.60-1.65L102.60-1.65Q103.17-1.79 103.61-2.08L103.61-2.08L103.61-2.08Q104.06-2.38 104.32-2.84L104.32-2.84L104.32-2.84Q104.59-3.31 104.59-3.96L104.59-3.96L104.59-3.96Q104.59-4.58 104.34-4.98L104.34-4.98L104.34-4.98Q104.08-5.37 103.66-5.64L103.66-5.64L103.66-5.64Q103.24-5.91 102.67-6.08L102.67-6.08L102.67-6.08Q102.10-6.25 101.47-6.40L101.47-6.40L101.47-6.40Q100.52-6.63 99.66-6.93L99.66-6.93L99.66-6.93Q98.81-7.23 98.17-7.72L98.17-7.72L98.17-7.72Q97.54-8.20 97.16-8.92L97.16-8.92L97.16-8.92Q96.78-9.64 96.78-10.71L96.78-10.71L96.78-10.71Q96.78-11.70 97.19-12.43L97.19-12.43L97.19-12.43Q97.60-13.15 98.29-13.62L98.29-13.62L98.29-13.62Q98.98-14.08 99.89-14.31L99.89-14.31L99.89-14.31Q100.80-14.53 101.80-14.53ZM111.89-14.22L111.89-17.47L114.24-17.47L114.24-14.22L119.03-14.22L119.03-12.24L114.24-12.24L114.24-4.07L114.24-4.07Q114.24-3.25 114.29-2.82L114.29-2.82L114.29-2.82Q114.34-2.39 114.53-2.15L114.53-2.15L114.53-2.15Q114.88-1.65 115.96-1.65L115.96-1.65L115.96-1.65Q116.57-1.65 117.13-1.78L117.13-1.78L117.13-1.78Q117.70-1.90 118.18-2.05L118.18-2.05L118.18-2.05Q118.56-1.22 118.88-0.22L118.88-0.22L118.88-0.22Q117.26 0.33 115.62 0.33L115.62 0.33L115.62 0.33Q114.43 0.33 113.72 0.06L113.72 0.06L113.72 0.06Q113.00-0.21 112.59-0.81L112.59-0.81L112.59-0.81Q112.16-1.44 112.03-2.31L112.03-2.31L112.03-2.31Q111.89-3.19 111.89-4.73L111.89-4.73L111.89-12.24L109.84-12.24L109.84-14.22L111.89-14.22ZM132.36-2.64L133.04-0.79L133.04-0.79Q131.52-0.19 130.19 0.07L130.19 0.07L130.19 0.07Q128.86 0.33 127.80 0.33L127.80 0.33L127.80 0.33Q126.19 0.33 124.99-0.18L124.99-0.18L124.99-0.18Q123.79-0.70 122.99-1.63L122.99-1.63L122.99-1.63Q122.19-2.56 121.78-3.85L121.78-3.85L121.78-3.85Q121.38-5.14 121.38-6.70L121.38-6.70L121.38-6.70Q121.38-7.66 121.52-8.61L121.52-8.61L121.52-8.61Q121.65-9.57 121.95-10.44L121.95-10.44L121.95-10.44Q122.25-11.31 122.74-12.06L122.74-12.06L122.74-12.06Q123.22-12.81 123.92-13.36L123.92-13.36L123.92-13.36Q124.62-13.90 125.55-14.22L125.55-14.22L125.55-14.22Q126.48-14.53 127.67-14.53L127.67-14.53L127.67-14.53Q130.72-14.53 132.26-12.63L132.26-12.63L132.26-12.63Q133.81-10.72 133.81-7.16L133.81-7.16L133.81-6.41L123.80-6.41L123.80-6.41Q123.80-5.26 124.04-4.38L124.04-4.38L124.04-4.38Q124.29-3.50 124.80-2.89L124.80-2.89L124.80-2.89Q125.32-2.28 126.10-1.97L126.10-1.97L126.10-1.97Q126.89-1.65 127.97-1.65L127.97-1.65L127.97-1.65Q128.57-1.65 129.17-1.74L129.17-1.74L129.17-1.74Q129.76-1.83 130.32-1.98L130.32-1.98L130.32-1.98Q130.88-2.12 131.39-2.30L131.39-2.30L131.39-2.30Q131.91-2.47 132.36-2.64L132.36-2.64ZM123.87-8.30L131.44-8.30L131.44-8.30Q131.33-10.51 130.38-11.53L130.38-11.53L130.38-11.53Q129.43-12.55 127.67-12.55L127.67-12.55L127.67-12.55Q125.90-12.55 124.98-11.53L124.98-11.53L124.98-11.53Q124.06-10.51 123.87-8.30L123.87-8.30ZM145.77 0L145.77-19.66L148.34-19.66L148.34-2.11L156.39-2.11L156.39 0L145.77 0ZM160.48-11.70L160.48-11.70L159.88-13.62L159.88-13.62Q162.18-14.53 164.69-14.53L164.69-14.53L164.69-14.53Q166.89-14.53 168.05-13.79L168.05-13.79L168.05-13.79Q169.38-12.95 169.38-10.91L169.38-10.91L169.38-5.32L169.38-5.32Q169.38-4.20 169.41-3.02L169.41-3.02L169.41-3.02Q169.42-2.32 169.54-1.57L169.54-1.57L169.54-1.57Q169.65-0.86 169.83-0.22L169.83-0.22L167.59 0.27L167.59 0.27Q167.28-0.64 167.19-1.78L167.19-1.78L166.92-1.80L166.92-1.80Q165.22 0.33 162.60 0.33L162.60 0.33L162.60 0.33Q160.69 0.33 159.52-0.73L159.52-0.73L159.52-0.73Q158.36-1.79 158.36-3.72L158.36-3.72L158.36-3.72Q158.36-5.15 159.00-6.07L159.00-6.07L159.00-6.07Q159.63-6.99 160.79-7.62L160.79-7.62L160.79-7.62Q162.63-8.61 165.92-8.61L165.92-8.61L165.92-8.61Q166.36-8.61 167.10-8.59L167.10-8.59L167.10-10.66L167.10-10.66Q167.10-11.65 166.50-12.09L166.50-12.09L166.50-12.09Q165.89-12.52 164.61-12.52L164.61-12.52L164.61-12.52Q162.74-12.52 160.48-11.70ZM167.10-3.99L167.10-3.99L167.10-6.86L167.10-6.86Q166.73-6.89 166.02-6.89L166.02-6.89L166.02-6.89Q164.81-6.89 163.80-6.69L163.80-6.69L163.80-6.69Q162.30-6.38 161.47-5.74L161.47-5.74L161.47-5.74Q160.64-5.09 160.64-3.87L160.64-3.87L160.64-3.87Q160.64-1.68 163.02-1.68L163.02-1.68L163.02-1.68Q164.25-1.68 165.32-2.34L165.32-2.34L165.32-2.34Q166.20-2.88 167.10-3.99ZM173.43-13.97L173.43-13.97L175.70-14.48L175.70-14.48Q175.96-13.66 176.07-12.89L176.07-12.89L176.07-12.89Q176.12-12.52 176.20-11.43L176.20-11.43L176.49-11.43L176.49-11.43Q177.24-12.81 178.35-13.63L178.35-13.63L178.35-13.63Q179.57-14.53 180.92-14.53L180.92-14.53L180.92-14.53Q182.96-14.53 184.02-13.55L184.02-13.55L184.02-13.55Q184.94-12.71 185.29-10.99L185.29-10.99L185.29-10.99Q185.53-9.82 185.53-7.49L185.53-7.49L185.53 0L183.18 0L183.18-8.15L183.18-8.15Q183.18-10.19 182.78-11.06L182.78-11.06L182.78-11.06Q182.19-12.36 180.41-12.36L180.41-12.36L180.41-12.36Q179.16-12.36 177.95-11.16L177.95-11.16L177.95-11.16Q177.15-10.35 176.23-8.79L176.23-8.79L176.23 0L173.88 0L173.88-8.75L173.88-8.75Q173.88-10.60 173.78-11.94L173.78-11.94L173.78-11.94Q173.73-12.77 173.43-13.97ZM197.87-14.19L197.87-19.69L200.22-19.69L200.22-5.37L200.22-5.37Q200.22-2.97 200.29-2.21L200.29-2.21L200.29-2.21Q200.36-1.29 200.61-0.22L200.61-0.22L198.34 0.29L198.34 0.29Q198.11-0.48 198.00-1.26L198.00-1.26L198.00-1.26Q197.86-2.21 197.85-2.73L197.85-2.73L197.64-2.73L197.64-2.73Q196.93-1.26 196.07-0.56L196.07-0.56L196.07-0.56Q195.03 0.33 193.50 0.33L193.50 0.33L193.50 0.33Q192.16 0.33 191.19-0.25L191.19-0.25L191.19-0.25Q190.22-0.83 189.68-1.87L189.68-1.87L189.68-1.87Q189.14-2.91 188.88-4.16L188.88-4.16L188.88-4.16Q188.63-5.40 188.63-6.90L188.63-6.90L188.63-6.90Q188.63-8.60 188.98-9.95L188.98-9.95L188.98-9.95Q189.33-11.31 190.05-12.35L190.05-12.35L190.05-12.35Q190.78-13.40 191.99-13.97L191.99-13.97L191.99-13.97Q193.21-14.53 194.85-14.53L194.85-14.53L194.85-14.53Q196.14-14.53 197.87-14.19L197.87-14.19ZM197.87-5.76L197.87-5.76L197.87-12.11L197.87-12.11Q196.33-12.52 195.03-12.52L195.03-12.52L195.03-12.52Q193.92-12.52 193.12-12.12L193.12-12.12L193.12-12.12Q192.32-11.72 191.87-10.99L191.87-10.99L191.87-10.99Q191.42-10.25 191.21-9.35L191.21-9.35L191.21-9.35Q191.01-8.45 191.01-7.33L191.01-7.33L191.01-7.33Q191.01-6.56 191.04-5.98L191.04-5.98L191.04-5.98Q191.08-5.40 191.17-4.72L191.17-4.72L191.17-4.72Q191.26-4.05 191.45-3.57L191.45-3.57L191.45-3.57Q191.64-3.09 191.93-2.68L191.93-2.68L191.93-2.68Q192.21-2.27 192.67-2.06L192.67-2.06L192.67-2.06Q193.13-1.85 193.73-1.85L193.73-1.85L193.73-1.85Q195.18-1.85 196.25-3.01L196.25-3.01L196.25-3.01Q197.01-3.86 197.87-5.76Z" fill="#ccc"></path></g></g><style>text {
  font-size: 64px;
  font-family: Arial Black;
  dominant-baseline: central;
  text-anchor: middle;
}</style></svg>